<svg xmlns="http://www.w3.org/2000/svg" viewBox="0 0 1920 600"><defs><style>.cls-1{fill:#080707;}.cls-2{fill:#22ac38;}.cls-3{fill:#c7000b;}.cls-4{fill:#8fc31f;}</style></defs><title>bg2-center</title><g id="圖層_3" data-name="圖層 3"><rect class="cls-1" width="1920" height="600"/></g><g id="圖層_6" data-name="圖層 6"><path class="cls-2" d="M1054.71,170.22s-83.37,19.94-89.62,79.28c19.69-34,49.6-17.48,81.61-53.41,16.36-18.36,30.5-27.18,30.5-27.18s-120.72-40.59-117.12,70.2C960.08,239.11,963,182.6,1054.71,170.22Z"/><path class="cls-3" d="M1043.49,308.06a130.9,130.9,0,0,0-3-58.56c31.09,10.42,53.57,41.32,24.67,107.32-28.32,64.68-84.33,81.53-105.19,81.53-11.83,0-35-5.42-57.93-21.91A131.68,131.68,0,0,0,1043.49,308.06Z"/><path class="cls-4" d="M1037.42,248.53a89.53,89.53,0,0,0-26.88-3.26A90.27,90.27,0,0,1,1018,268.4c0,.07.05.14.08.22l-.06-.08A98.83,98.83,0,0,1,904.69,383.23c-2.09-.34-4.14-.75-6.17-1.22a98.79,98.79,0,0,0,107.42-82.21c2.92-17.75,4.16-36.83-5-50.89-.12-.19-.26-.37-.39-.56-.5-.73-1-1.42-1.55-2.09a76.63,76.63,0,0,0-19.1,5.22,43.81,43.81,0,0,1-39.76,0c-39.5-17.11-133.33-4.34-85.31,105.34q2.25,5.12,4.71,9.83a47.27,47.27,0,0,0,32.74,24.43q3.91.78,7.93,1.32c63.5,8.49,123.45-33.94,136.56-96.64A122.71,122.71,0,0,0,1037.42,248.53ZM859.25,279.72a11.7,11.7,0,1,1,11.7,11.7A11.69,11.69,0,0,1,859.25,279.72Zm19.12,37a7.43,7.43,0,1,1,7.43-7.42A7.42,7.42,0,0,1,878.37,316.68Zm15.88-37A5.78,5.78,0,1,1,900,285.5,5.78,5.78,0,0,1,894.25,279.72Z"/></g></svg>