<?xml version="1.0" encoding="utf-8"?>
<!-- Generator: Adobe Illustrator 23.1.0, SVG Export Plug-In . SVG Version: 6.00 Build 0)  -->
<svg version="1.1" xmlns="http://www.w3.org/2000/svg" xmlns:xlink="http://www.w3.org/1999/xlink" x="0px" y="0px"
	 viewBox="0 0 1920 600" style="enable-background:new 0 0 1920 600;" xml:space="preserve">
<style type="text/css">
	.st0{display:none;}
	.st1{display:inline;fill:#E6E6E5;}
	.st2{fill:#080707;}
	.st3{display:inline;}
	.st4{fill:#22AC38;}
	.st5{fill:#C7000B;}
	.st6{fill:#8FC31F;}
	.st7{display:inline;fill:#EB6100;}
</style>
<g id="圖層_2" class="st0">
	<rect class="st1" width="1920" height="600"/>
</g>
<g id="圖層_3">
	<rect class="st2" width="1920" height="600"/>
</g>
<g id="圖層_1" class="st0">
	<g id="XMLID_300_" class="st3">
		<path id="XMLID_1034_" class="st4" d="M1467.35,170.22c0,0-83.36,19.95-89.61,79.28c19.69-34,49.6-17.48,81.61-53.4
			c16.36-18.36,30.5-27.19,30.5-27.19s-120.72-40.59-117.12,70.2C1372.73,239.11,1375.63,182.6,1467.35,170.22z"/>
		<path id="XMLID_672_" class="st5" d="M1456.14,308.06c3.54-20.18,2.27-40.09-2.97-58.57c31.09,10.42,53.56,41.32,24.66,107.32
			c-28.32,64.68-84.33,81.53-105.19,81.53c-11.83,0-34.96-5.42-57.93-21.91C1382.19,422.55,1444.21,376,1456.14,308.06z"/>
		<path id="XMLID_878_" class="st6" d="M1450.07,248.53c-8.71-2.5-17.97-3.49-26.88-3.26c3.47,7.25,6.03,14.97,7.48,23.13
			c0.03,0.07,0.06,0.14,0.08,0.22c-0.02-0.03-0.04-0.05-0.06-0.07c1.9,10.72,2.05,21.94,0.18,33.29
			c-8.88,53.83-59.71,90.28-113.54,81.4c-2.08-0.34-4.14-0.75-6.17-1.22c51.51,5.26,98.88-30.43,107.42-82.21
			c2.93-17.76,4.16-36.83-5.01-50.89c-0.13-0.19-0.26-0.37-0.39-0.56c-0.5-0.74-1.02-1.43-1.56-2.1c-7.06,1.04-13.61,2.84-19.1,5.22
			c-6.37,2.76-13.1,4.34-19.88,4.78c-6.78-0.43-13.51-2.02-19.88-4.78c-39.5-17.11-133.33-4.34-85.31,105.34
			c1.49,3.41,3.06,6.69,4.7,9.83c6.61,12.7,18.71,21.62,32.74,24.42c2.61,0.52,5.25,0.96,7.93,1.32
			c63.49,8.49,123.44-33.93,136.56-96.64C1452.77,279.66,1452.83,263.7,1450.07,248.53z M1271.9,279.72
			c0-6.46,5.24-11.69,11.69-11.69c6.46,0,11.69,5.24,11.69,11.69c0,6.46-5.24,11.69-11.69,11.69
			C1277.14,291.42,1271.9,286.18,1271.9,279.72z M1291.02,316.68c-4.1,0-7.43-3.33-7.43-7.43s3.33-7.43,7.43-7.43
			c4.1,0,7.43,3.33,7.43,7.43S1295.12,316.68,1291.02,316.68z M1306.9,279.72c0-3.19,2.59-5.78,5.78-5.78
			c3.19,0,5.78,2.59,5.78,5.78c0,3.19-2.59,5.78-5.78,5.78C1309.49,285.5,1306.9,282.91,1306.9,279.72z"/>
	</g>
</g>
<g id="圖層_5">
	<g id="XMLID_1_">
		<path id="XMLID_8_" class="st4" d="M642.06,170.22c0,0-83.36,19.95-89.61,79.28c19.69-34,49.6-17.48,81.61-53.4
			c16.36-18.36,30.5-27.19,30.5-27.19s-120.72-40.59-117.12,70.2C547.43,239.11,550.33,182.6,642.06,170.22z"/>
		<path id="XMLID_7_" class="st5" d="M630.84,308.06c3.54-20.18,2.27-40.09-2.97-58.57c31.09,10.42,53.56,41.32,24.66,107.32
			c-28.32,64.68-84.33,81.53-105.19,81.53c-11.83,0-34.96-5.42-57.93-21.91C556.9,422.55,618.92,376,630.84,308.06z"/>
		<path id="XMLID_2_" class="st6" d="M624.77,248.53c-8.71-2.5-17.97-3.49-26.88-3.26c3.47,7.25,6.03,14.97,7.48,23.13
			c0.03,0.07,0.06,0.14,0.08,0.22c-0.02-0.03-0.04-0.05-0.06-0.07c1.9,10.72,2.05,21.94,0.18,33.29
			c-8.88,53.83-59.71,90.28-113.54,81.4c-2.08-0.34-4.14-0.75-6.17-1.22c51.51,5.26,98.88-30.43,107.42-82.21
			c2.93-17.76,4.16-36.83-5.01-50.89c-0.13-0.19-0.26-0.37-0.39-0.56c-0.5-0.74-1.02-1.43-1.56-2.1c-7.06,1.04-13.61,2.84-19.1,5.22
			c-6.37,2.76-13.1,4.34-19.88,4.78c-6.78-0.43-13.51-2.02-19.88-4.78c-39.5-17.11-133.33-4.34-85.31,105.34
			c1.49,3.41,3.06,6.69,4.7,9.83c6.61,12.7,18.71,21.62,32.74,24.42c2.61,0.52,5.25,0.96,7.93,1.32
			c63.49,8.49,123.44-33.93,136.56-96.64C627.47,279.66,627.53,263.7,624.77,248.53z M446.6,279.72c0-6.46,5.24-11.69,11.69-11.69
			c6.46,0,11.69,5.24,11.69,11.69c0,6.46-5.24,11.69-11.69,11.69C451.84,291.42,446.6,286.18,446.6,279.72z M465.72,316.68
			c-4.1,0-7.43-3.33-7.43-7.43s3.33-7.43,7.43-7.43c4.1,0,7.43,3.33,7.43,7.43S469.82,316.68,465.72,316.68z M481.61,279.72
			c0-3.19,2.59-5.78,5.78-5.78c3.19,0,5.78,2.59,5.78,5.78c0,3.19-2.59,5.78-5.78,5.78C484.19,285.5,481.61,282.91,481.61,279.72z"
			/>
	</g>
</g>
<g id="圖層_4" class="st0">
	<rect x="1491.2" class="st7" width="428.8" height="600"/>
	<rect y="1.83" class="st7" width="428.8" height="600"/>
</g>
</svg>
